<svg xmlns="http://www.w3.org/2000/svg" width="104" height="105" fill="none"><path fill="#1A3B70" fill-rule="evenodd" d="M26.395 71.277 14.053 90.163c-.52.795.218 1.812 1.134 1.567l10.962-2.938c.55-.148 1.12.181 1.268.732l2.937 10.962c.244.912 1.497 1.042 1.924.199L42.87 79.747c-.841-.363-1.77-.443-2.739-.221l-2.72.62c-4.348.99-8.756-1.559-10.064-5.824l-.805-2.625a5 5 0 0 0-.148-.42Zm51.218.014 12.332 18.872c.52.795-.217 1.812-1.134 1.567L77.85 88.791a1.037 1.037 0 0 0-1.268.732l-2.937 10.962c-.244.914-1.497 1.042-1.924.199L61.13 79.751c.853-.378 1.795-.46 2.78-.233l2.675.615a8.53 8.53 0 0 0 10.075-5.805l.823-2.665q.058-.192.13-.372" clip-rule="evenodd"/><path fill="#009D77" fill-rule="evenodd" d="M52 14.969c15.618 0 28.279 12.66 28.279 28.279s-12.66 28.279-28.28 28.279c-15.617 0-28.278-12.661-28.278-28.28C23.72 27.63 36.38 14.969 52 14.969m0 54.526c14.497 0 26.248-11.75 26.248-26.247S66.497 17 52 17 25.752 28.75 25.752 43.248c0 14.497 11.75 26.247 26.248 26.247m.788-45.42c-.246-.764-1.328-.764-1.576 0l-3.746 11.604a.82.82 0 0 1-.79.573l-12.194-.024c-.802-.003-1.135 1.027-.487 1.499l9.88 7.148c.297.215.414.58.3.928l-3.79 11.588c-.248.76.63 1.398 1.274.926l9.851-7.186a.82.82 0 0 1 .975 0l9.852 7.186c.646.472 1.523-.166 1.274-.926l-3.79-11.588a.82.82 0 0 1 .3-.928l9.878-7.148c.65-.47.315-1.5-.488-1.5l-12.193.025a.82.82 0 0 1-.79-.573zM24.184 66.79c2.125.656 3.652 2.185 4.304 4.312l.805 2.624a6.5 6.5 0 0 0 7.67 4.439l2.72-.62c2.167-.493 4.255.067 5.882 1.583l2.009 1.868a6.5 6.5 0 0 0 8.862.008l2.046-1.897c1.629-1.511 3.719-2.07 5.884-1.57l2.675.616a6.5 6.5 0 0 0 7.68-4.425l.823-2.664c.656-2.125 2.186-3.653 4.313-4.305l2.624-.804a6.5 6.5 0 0 0 4.438-7.67l-.62-2.72c-.493-2.167.068-4.255 1.583-5.882l1.869-2.01a6.5 6.5 0 0 0 .008-8.862l-1.897-2.045c-1.512-1.63-2.07-3.72-1.57-5.885l.615-2.675a6.5 6.5 0 0 0-4.424-7.68l-2.665-.823c-2.125-.656-3.652-2.185-4.304-4.312l-.805-2.624a6.5 6.5 0 0 0-7.67-4.439l-2.72.62c-2.167.493-4.255-.067-5.882-1.582l-2.009-1.871a6.5 6.5 0 0 0-8.862-.008L45.52 7.384c-1.629 1.511-3.719 2.07-5.884 1.57l-2.675-.615a6.5 6.5 0 0 0-7.68 4.424l-.823 2.665c-.656 2.124-2.186 3.652-4.313 4.304l-2.624.804a6.5 6.5 0 0 0-4.438 7.67l.62 2.72c.493 2.167-.068 4.256-1.583 5.883l-1.87 2.008a6.5 6.5 0 0 0-.009 8.863l1.897 2.045c1.511 1.63 2.07 3.72 1.57 5.885l-.615 2.675a6.5 6.5 0 0 0 4.424 7.68z" clip-rule="evenodd"/></svg>