<svg xmlns="http://www.w3.org/2000/svg" width="32" height="32" fill="none"><path stroke="#EA4C89" stroke-linecap="round" stroke-linejoin="round" stroke-width="2" d="m3.073 11.463 11.992-5.996a.6.6 0 0 1 .537 0l11.991 5.996a.6.6 0 0 1 0 1.074l-11.991 5.995a.6.6 0 0 1-.537 0L3.073 12.537a.6.6 0 0 1 0-1.074"/><path stroke="#EA4C89" stroke-linecap="round" stroke-linejoin="round" stroke-width="1.5" d="M30 17.333v-4.666l-2.667-1.334M6 14v7.638a2 2 0 0 0 1.142 1.806l7.333 3.482a2 2 0 0 0 1.716 0l7.334-3.482a2 2 0 0 0 1.142-1.806V14"/></svg>